<svg id="Layer_1" data-name="Layer 1" xmlns="http://www.w3.org/2000/svg"  width="current" height="current" viewBox="0 0 415 125">
  <defs>
    <style>
      .cls-1 {
        fill: none;
        stroke: #7151a1;
        stroke-miterlimit: 10;
      }

      .cls-2 {
        fill: #7151a1;
      }

      .cls-3 {
        fill: #ed1e79;
      }

      .cls-4 {
        fill: #1a1a1a;
      }
    </style>
  </defs>
  <g>
    <g>
      <polygon class="cls-3" points="61.21 11.3 15.37 92.56 32.69 92.56 78.72 11.3 61.21 11.3"/>
      <polygon class="cls-3" points="51.53 92.56 68.84 92.56 114.88 11.3 97.36 11.3 51.53 92.56"/>
    </g>
    <g>
      <polygon class="cls-4" points="124.86 25.49 150.14 25.49 141.69 90.84 157.26 90.84 165.71 25.49 191.12 25.49 192.73 13.02 126.47 13.02 124.86 25.49"/>
      <path class="cls-4" d="M229.48,59.77h16.65l-2.32,17.76c-1.92,.54-5.65,1.25-11.91,1.25-18.4,0-28.08-10.04-25.88-26.86,2.15-16.48,15.24-26.71,34.17-26.71,8.92,0,13.89,1.66,16.86,2.9l2.27,.96,5.64-11.74-1.83-.81c-3.66-1.61-11.39-3.49-21.1-3.49-27.99,0-48.89,15.82-52,39.38-1.52,11.46,1.59,21.8,8.51,28.35,7.16,6.79,17.32,10.09,31.06,10.09,12.39,0,22.75-2.86,26.63-4.08l1.64-.52,5-38.28h-31.84l-1.54,11.82Z"/>
      <polygon class="cls-4" points="301.24 13.02 285.67 13.02 275.61 90.84 326.67 90.84 328.28 78.38 292.79 78.38 301.24 13.02"/>
      <polygon class="cls-4" points="357.06 78.48 359.91 56.45 392.1 56.45 393.69 44.14 361.5 44.14 363.93 25.37 398.03 25.37 399.63 13.02 349.96 13.02 339.9 90.84 391.46 90.84 393.06 78.48 357.06 78.48"/>
    </g>
  </g>
  <g>
    <g>
      <path class="cls-2" d="M87.28,107.11h-3.71v-1.76h9.51v1.76h-3.71v10.01h-2.09v-10.01Z"/>
      <path class="cls-2" d="M108.06,109.93h-3.82v-1.65h5.9v8.84h-2.08v-7.19Zm-.57-4.65c0-.83,.62-1.4,1.48-1.4s1.48,.57,1.48,1.4-.62,1.39-1.48,1.39-1.48-.55-1.48-1.39Z"/>
      <path class="cls-2" d="M123.85,112.71c0-2.96,2.33-4.65,5.02-4.65,1.42,0,2.53,.54,3.27,1.25l-.98,1.3c-.7-.55-1.39-.85-2.18-.85-1.77,0-2.99,1.17-2.99,2.95s1.2,2.93,2.93,2.93c1.01,0,1.84-.45,2.52-.97l.87,1.33c-1.02,.88-2.32,1.34-3.57,1.34-2.78,0-4.88-1.69-4.88-4.63Z"/>
      <path class="cls-2" d="M143.95,104.41h2.08v7.95h.07l3.98-4.08h2.31l-6.36,6.53v2.31h-2.08v-12.71Zm3.55,8.37l1.22-1.32,4.06,5.66h-2.28l-3-4.34Z"/>
      <path class="cls-2" d="M163.23,112.69c0-2.88,2.19-4.63,4.56-4.63,2.64,0,4.1,1.75,4.1,4.2,0,.42-.06,.82-.09,1.05h-7.08v-1.47h5.74l-.4,.46c0-1.75-.82-2.63-2.21-2.63-1.46,0-2.59,1.05-2.59,3.03s1.24,3.04,3.08,3.04c.93,0,1.69-.27,2.48-.72l.71,1.29c-.94,.62-2.17,1.04-3.46,1.04-2.71,0-4.84-1.71-4.84-4.65Z"/>
      <path class="cls-2" d="M185.35,113.57v-3.64h-2.37v-1.55l2.45-.1,.27-2.77h1.72v2.77h4.02v1.65h-4.02v3.63c0,1.46,.55,2.12,2.04,2.12,.74,0,1.35-.15,1.92-.36l.4,1.51c-.79,.26-1.68,.5-2.83,.5-2.7,0-3.62-1.52-3.62-3.77Z"/>
      <path class="cls-2" d="M222.78,115.39l1.24-1.29c.68,.94,1.54,1.42,2.39,1.42,1.43,0,2.11-.68,2.11-2.45v-5.96h-4.75v-1.76h6.86v7.9c0,2.25-1.06,4.1-4.16,4.1-1.31,0-2.77-.56-3.69-1.95Z"/>
      <path class="cls-2" d="M242.57,113.76v-5.48h2.08v5.21c0,1.41,.44,2.07,1.65,2.07,.83,0,1.43-.35,2.22-1.3v-5.97h2.08v8.84h-1.71l-.16-1.41h-.07c-.84,.97-1.82,1.62-3.13,1.62-2.05,0-2.96-1.3-2.96-3.58Z"/>
      <path class="cls-2" d="M262.61,108.28h1.7l.16,1.33h.07c.85-.86,1.84-1.55,3.19-1.55,2.04,0,2.97,1.3,2.97,3.58v5.48h-2.08v-5.21c0-1.42-.46-2.07-1.65-2.07-.87,0-1.46,.42-2.27,1.24v6.03h-2.08v-8.84Z"/>
      <path class="cls-2" d="M282.04,118.68c0-.72,.49-1.37,1.41-1.87v-.07c-.48-.28-.9-.74-.9-1.48,0-.58,.4-1.21,1.06-1.66v-.07c-.63-.44-1.13-1.24-1.13-2.28,0-2.03,1.7-3.19,3.64-3.19,.52,0,.98,.07,1.38,.22h3.63v1.58h-2.03c.3,.34,.56,.88,.56,1.46,0,1.97-1.55,3-3.54,3-.4,0-.88-.08-1.35-.25-.35,.23-.54,.48-.54,.83,0,.58,.57,.84,1.67,.84h1.8c2.3,0,3.48,.62,3.48,2.16,0,1.75-1.98,3.14-5.1,3.14-2.44,0-4.04-.78-4.04-2.36Zm7.14-.44c0-.7-.61-.87-1.78-.87h-1.41c-.58,0-.99-.04-1.35-.13-.64,.36-.87,.75-.87,1.16,0,.79,.93,1.25,2.56,1.25,1.73,0,2.85-.66,2.85-1.41Zm-1.38-6.99c0-1.08-.75-1.75-1.68-1.75s-1.67,.67-1.67,1.75,.76,1.77,1.67,1.77,1.68-.66,1.68-1.77Z"/>
      <path class="cls-2" d="M304.79,113.9v-7.85h-2.95v-1.65h5.03v9.6c0,1.18,.7,1.63,1.59,1.63,.46,0,.95-.11,1.51-.34l.48,1.54c-.87,.32-1.47,.5-2.51,.5-2.06,0-3.16-1.26-3.16-3.43Z"/>
      <path class="cls-2" d="M321.63,112.69c0-2.88,2.19-4.63,4.56-4.63,2.64,0,4.1,1.75,4.1,4.2,0,.42-.06,.82-.09,1.05h-7.08v-1.47h5.74l-.4,.46c0-1.75-.82-2.63-2.21-2.63-1.46,0-2.59,1.05-2.59,3.03s1.24,3.04,3.08,3.04c.93,0,1.69-.27,2.48-.72l.71,1.29c-.94,.62-2.17,1.04-3.46,1.04-2.71,0-4.84-1.71-4.84-4.65Z"/>
    </g>
    <line class="cls-1" x1="11.42" y1="112.46" x2="77.91" y2="112.46"/>
    <line class="cls-1" x1="337.09" y1="112.46" x2="403.58" y2="112.46"/>
  </g>
</svg>