<?xml version="1.0" encoding="utf-8"?>
<!-- Generator: Adobe Adobe Illustrator 24.2.0, SVG Export Plug-In . SVG Version: 6.00 Build 0)  -->
<svg version="1.1" id="레이어_1" xmlns="http://www.w3.org/2000/svg" xmlns:xlink="http://www.w3.org/1999/xlink" x="0px"
	 y="0px" width="420px" height="115px" viewBox="0 0 420 115" style="enable-background:new 0 0 420 115;" xml:space="preserve">
<style type="text/css">
	.st0{fill:#1A1A1A;}
	.st1{fill:#ED1E79;}
	.st2{fill:#EFEEED;}
</style>
<rect class="st0" width="420" height="115"/>
<g>
	<g>
		<polygon class="st1" points="63.71,16.87 17.87,98.13 35.19,98.13 81.22,16.87 		"/>
		<polygon class="st1" points="54.03,98.13 71.34,98.13 117.38,16.87 99.86,16.87 		"/>
	</g>
	<g>
		<polygon class="st2" points="127.36,31.06 152.64,31.06 144.19,96.41 159.76,96.41 168.21,31.06 193.62,31.06 195.23,18.59 
			128.97,18.59 		"/>
		<path class="st2" d="M231.98,65.34h16.65l-2.32,17.76c-1.92,0.54-5.65,1.25-11.91,1.25c-18.4,0-28.08-10.04-25.88-26.86
			c2.15-16.48,15.24-26.71,34.17-26.71c8.92,0,13.89,1.66,16.86,2.9l2.27,0.96l5.64-11.74l-1.83-0.81
			c-3.66-1.61-11.39-3.49-21.1-3.49c-27.99,0-48.89,15.82-52,39.38c-1.52,11.46,1.59,21.8,8.51,28.35
			c7.16,6.79,17.32,10.09,31.06,10.09c12.39,0,22.75-2.86,26.63-4.08l1.64-0.52l5-38.28h-31.84l-1.54,11.82L231.98,65.34z"/>
		<polygon class="st2" points="303.74,18.59 288.17,18.59 278.11,96.41 329.17,96.41 330.78,83.95 295.29,83.95 		"/>
		<polygon class="st2" points="359.56,84.05 362.41,62.02 394.6,62.02 396.19,49.71 364,49.71 366.43,30.94 400.53,30.94 
			402.13,18.59 352.46,18.59 342.4,96.41 393.96,96.41 395.56,84.05 		"/>
	</g>
</g>
</svg>
